<?xml version="1.0" encoding="utf-8"?>
<!-- Generator: Adobe Illustrator 23.0.1, SVG Export Plug-In . SVG Version: 6.00 Build 0)  -->
<svg version="1.1" id="Layer_1" xmlns="http://www.w3.org/2000/svg" xmlns:xlink="http://www.w3.org/1999/xlink" x="0px" y="0px"
	 viewBox="0 0 226 70" style="enable-background:new 0 0 226 70;" xml:space="preserve">
<style type="text/css">
	.st0{font-family:'AmericanRetro';}
	.st1{font-size:36.9689px;}
	.st2{fill:#FF0826;}
</style>
<text transform="matrix(1 0 0 1 140.0029 9.561)"><tspan x="0" y="0" class="st0 st1"> </tspan><tspan x="-75.75" y="44.36" class="st0 st1">Стряпихина</tspan></text>
<text transform="matrix(1 0 0 1 93.1846 26.5049)" class="st0 st1">Алёна</text>
<g id="XMLID_61_">
	<path id="XMLID_170_" d="M51.46,21.37v-4.35c0-1.69-1.38-3.07-3.07-3.07H38.06c-1.69,0-3.07,1.38-3.07,3.07v4.32h-4.6
		c-0.73,0-1.31,0.59-1.31,1.31c0,0.73,0.59,1.31,1.31,1.31h20.52c2.11,0,3.83,1.72,3.83,3.83v24.05c0,2.11-1.72,3.83-3.83,3.83
		c-0.73,0-1.31,0.59-1.31,1.31c0,0.73,0.59,1.31,1.31,1.31c3.56,0,6.46-2.9,6.46-6.46V27.81C57.37,24.43,54.76,21.65,51.46,21.37z
		 M37.61,17.03c0-0.25,0.2-0.45,0.45-0.45h10.33c0.25,0,0.45,0.2,0.45,0.45v4.32H37.61V17.03z"/>
	<g id="XMLID_50_">
		<path id="XMLID_166_" d="M30.25,58.22H9.73c-3.56,0-6.46-2.9-6.46-6.46V27.71c0-3.56,2.9-6.46,6.46-6.46
			c0.73,0,1.31,0.59,1.31,1.31c0,0.73-0.59,1.31-1.31,1.31c-2.11,0-3.83,1.72-3.83,3.83v24.05c0,2.11,1.72,3.83,3.83,3.83h20.52
			c0.73,0,1.31,0.59,1.31,1.31C31.56,57.63,30.98,58.22,30.25,58.22z"/>
	</g>
	<g id="XMLID_52_">
		<path id="XMLID_10_" d="M30.25,58.22c-0.73,0-1.31-0.59-1.31-1.31c0-0.73,0.59-1.31,1.31-1.31c8.72,0,15.81-7.09,15.81-15.81
			s-7.09-15.81-15.81-15.81c-0.73,0-1.31-0.59-1.31-1.31c0-0.73,0.59-1.31,1.31-1.31c10.17,0,18.44,8.27,18.44,18.44
			S40.42,58.22,30.25,58.22z"/>
	</g>
	<g id="XMLID_84_">
		<path id="XMLID_167_" class="st2" d="M30.07,51.91c-6.77,0-12.28-5.51-12.28-12.28c0-6.77,5.51-12.28,12.28-12.28
			c6.77,0,12.28,5.51,12.28,12.28C42.35,46.4,36.84,51.91,30.07,51.91z M30.07,29.97c-5.33,0-9.66,4.33-9.66,9.66
			c0,5.33,4.33,9.66,9.66,9.66c5.33,0,9.66-4.33,9.66-9.66C39.72,34.3,35.39,29.97,30.07,29.97z"/>
	</g>
</g>
</svg>
